<svg width="26" height="40" viewBox="0 0 26 40" fill="none" xmlns="http://www.w3.org/2000/svg">
<path d="M12.8899 39.978C12.8899 39.9853 12.9046 40 12.9046 40C12.9046 40 25.7799 20.2315 25.7799 13.7351C25.7799 4.17417 19.2541 0.0146978 12.8899 0C6.52581 0.0146978 0 4.17417 0 13.7351C0 20.2315 12.8826 40 12.8826 40L12.8899 39.978ZM8.42917 13.1913C8.42917 10.722 10.4281 8.72313 12.8973 8.72313C15.3665 8.72313 17.3654 10.722 17.3654 13.1913C17.3654 15.6605 15.3592 17.6594 12.8899 17.6594C10.4281 17.6594 8.42917 15.6605 8.42917 13.1913Z" fill="#D68A09"/>
</svg>
